<svg width="200" height="200" viewBox="0 0 200 200" xmlns="http://www.w3.org/2000/svg">
  <!-- Gradient definitions -->
  <defs>
    <linearGradient id="bloodGradient" x1="0%" y1="0%" x2="100%" y2="100%">
      <stop offset="0%" style="stop-color:#ff4444;stop-opacity:1" />
      <stop offset="100%" style="stop-color:#cc0000;stop-opacity:1" />
    </linearGradient>
    <linearGradient id="whiteGradient" x1="0%" y1="0%" x2="100%" y2="100%">
      <stop offset="0%" style="stop-color:#ffffff;stop-opacity:1" />
      <stop offset="100%" style="stop-color:#f5f5f5;stop-opacity:1" />
    </linearGradient>
    <filter id="shadow" x="-50%" y="-50%" width="200%" height="200%">
      <feDropShadow dx="2" dy="4" stdDeviation="3" flood-color="#000000" flood-opacity="0.3"/>
    </filter>
  </defs>
  
  <!-- Main blood drop shape -->
  <path d="M100 30 C120 50, 140 80, 140 110 C140 145, 125 170, 100 170 C75 170, 60 145, 60 110 C60 80, 80 50, 100 30 Z" 
        fill="url(#bloodGradient)" 
        filter="url(#shadow)"/>
  
  <!-- Inner highlight for 3D effect -->
  <path d="M100 40 C115 55, 125 75, 125 95 C125 115, 115 130, 100 130 C85 130, 75 115, 75 95 C75 75, 85 55, 100 40 Z" 
        fill="url(#whiteGradient)" 
        opacity="0.2"/>
  
  <!-- Medical cross symbol -->
  <g transform="translate(100, 110)">
    <!-- Vertical bar -->
    <rect x="-4" y="-20" width="8" height="40" fill="white" rx="2"/>
    <!-- Horizontal bar -->
    <rect x="-15" y="-4" width="30" height="8" fill="white" rx="2"/>
  </g>
  
  <!-- Small decorative elements -->
  <circle cx="85" cy="85" r="3" fill="white" opacity="0.6"/>
  <circle cx="115" cy="95" r="2" fill="white" opacity="0.4"/>
  <circle cx="90" cy="125" r="2.5" fill="white" opacity="0.5"/>
</svg>